<?xml version="1.0" encoding="utf-8"?>
<!-- Generator: Adobe Illustrator 22.0.0, SVG Export Plug-In . SVG Version: 6.00 Build 0)  -->
<svg version="1.1" id="Ebene_1" focusable="false" xmlns="http://www.w3.org/2000/svg" xmlns:xlink="http://www.w3.org/1999/xlink"
	 x="0px" y="0px" viewBox="0 0 512 512" style="enable-background:new 0 0 512 512;" xml:space="preserve">
<style type="text/css">
	.st0{fill:#3A3A3A;}
	.st1{fill:url(#SVGID_1_);}
</style>
<path class="st0" d="M482.1,412.3l-330.4,97.9c-22.1,6.6-45.4-6.1-52-28.2L1.7,151.7c-6.6-22.1,6.1-45.4,28.2-52L360.3,1.7
	c22.1-6.6,45.4,6.1,52,28.2l97.9,330.4C516.8,382.5,504.2,405.8,482.1,412.3z"/>
<linearGradient id="SVGID_1_" gradientUnits="userSpaceOnUse" x1="346.4679" y1="690.6477" x2="165.5625" y2="377.3104" gradientTransform="matrix(0.9588 -0.2842 0.2842 0.9588 -141.222 -183.2115)">
	<stop  offset="0" style="stop-color:#FFECCF"/>
	<stop  offset="2.534121e-02" style="stop-color:#FFEBCA"/>
	<stop  offset="0.354" style="stop-color:#FBDE94"/>
	<stop  offset="0.6376" style="stop-color:#F9D46C"/>
	<stop  offset="0.8622" style="stop-color:#F8CE54"/>
	<stop  offset="1" style="stop-color:#F7CC4B"/>
</linearGradient>
<path class="st1" d="M231.3,172.7c-40.6,12-63.8,54.9-51.8,95.5c12,40.6,54.9,63.8,95.5,51.8c40.6-12,63.8-54.9,51.8-95.5
	S271.9,160.7,231.3,172.7z M425.3,194l-76.1-13.4l2.6-77.2c0.3-10.4-11.4-16.8-19.9-10.8l-63.3,44.3l-52.8-56.5
	c-7.1-7.7-19.8-3.9-21.7,6.4l-13.4,76.1l-77.3-2.6c-10.4-0.3-16.8,11.4-10.8,19.9l44.3,63.3l-56.5,52.8c-7.7,7.1-3.9,19.8,6.4,21.7
	l76.1,13.4l-2.6,77.3c-0.3,10.4,11.4,16.8,19.9,10.8l63.3-44.3l52.7,56.5c7.1,7.7,19.8,3.9,21.7-6.4l13.4-76.1l77.2,2.6
	c10.4,0.3,16.8-11.4,10.8-19.9l-44.3-63.3l56.5-52.7C439.3,208.6,435.5,195.8,425.3,194L425.3,194z M343.2,295.2
	c-26.9,49.6-89.2,68.1-138.9,41.2s-68.1-89.2-41.2-138.9s89.2-68.1,138.9-41.2C351.6,183.3,370.1,245.6,343.2,295.2z"/>
</svg>
