<?xml version="1.0" encoding="utf-8"?>
<!-- Generator: Adobe Illustrator 22.0.0, SVG Export Plug-In . SVG Version: 6.00 Build 0)  -->
<svg version="1.1" id="Ebene_1" focusable="false" xmlns="http://www.w3.org/2000/svg" xmlns:xlink="http://www.w3.org/1999/xlink"
	 x="0px" y="0px" viewBox="0 0 512 512" style="enable-background:new 0 0 512 512;" xml:space="preserve">
<style type="text/css">
	.st0{fill:#1F2028;}
	.st1{fill:url(#SVGID_1_);}
</style>
<path class="st0" d="M462,512H50c-27.6,0-50-22.4-50-50V50C0,22.4,22.4,0,50,0h412c27.6,0,50,22.4,50,50v412
	C512,489.6,489.6,512,462,512z"/>
<linearGradient id="SVGID_1_" gradientUnits="userSpaceOnUse" x1="369.0389" y1="62.1975" x2="142.9678" y2="453.7641" gradientTransform="matrix(1 0 0 -1 0 514)">
	<stop  offset="0" style="stop-color:#FFECCF"/>
	<stop  offset="2.534121e-02" style="stop-color:#FFEBCA"/>
	<stop  offset="0.354" style="stop-color:#FBDE94"/>
	<stop  offset="0.6376" style="stop-color:#F9D46C"/>
	<stop  offset="0.8622" style="stop-color:#F8CE54"/>
	<stop  offset="1" style="stop-color:#F7CC4B"/>
</linearGradient>
<path class="st1" d="M256,147.5c-52.9,0-96,43.1-96,96s43.1,96,96,96s96-43.1,96-96S308.9,147.5,256,147.5z M480.8,241.9l-86.4-43.1
	l30.6-91.6c4.1-12.4-7.7-24.2-20-20l-91.6,30.6l-43.2-86.5c-5.8-11.7-22.4-11.7-28.3,0l-43.1,86.4l-91.7-30.6
	c-12.4-4.1-24.2,7.7-20,20l30.6,91.6l-86.4,43.2c-11.7,5.8-11.7,22.4,0,28.3l86.4,43.1L87.1,405c-4.1,12.4,7.7,24.2,20,20l91.6-30.6
	l43.1,86.4c5.8,11.7,22.4,11.7,28.3,0l43.1-86.4l91.6,30.6c12.4,4.1,24.2-7.7,20-20l-30.6-91.6l86.4-43.1
	C492.4,264.3,492.4,247.7,480.8,241.9L480.8,241.9z M346.5,334c-49.9,49.9-131.1,49.9-181,0s-49.9-131.1,0-181s131.1-49.9,181,0
	S396.4,284.1,346.5,334z"/>
</svg>
