<?xml version="1.0" encoding="utf-8"?>
<!-- Generator: Adobe Illustrator 22.0.0, SVG Export Plug-In . SVG Version: 6.00 Build 0)  -->
<svg version="1.1" id="Ebene_1" xmlns="http://www.w3.org/2000/svg" xmlns:xlink="http://www.w3.org/1999/xlink" x="0px" y="0px"
	 viewBox="0 0 139.1 35.8" style="enable-background:new 0 0 139.1 35.8;" xml:space="preserve">
<style type="text/css">
	.st0{fill:url(#SVGID_1_);stroke:#1D1D1B;stroke-width:0.33;}
	.st1{fill:none;stroke:#000000;stroke-width:0.37;}
	.st2{fill:#3A3A3A;}
	.st3{font-family:'Jost', 'sans-serif';}
	.st4{font-size:7px;}
</style>
<title>legend-goals-filtered-no-idea</title>
<g id="Legende_Outdegree">
	<linearGradient id="SVGID_1_" gradientUnits="userSpaceOnUse" x1="2.87" y1="17.1899" x2="127.67" y2="17.1899" gradientTransform="matrix(1 0 0 1 -0.87 -1.7)">
		<stop  offset="0" style="stop-color:#FFF4A5"/>
		<stop  offset="0.14" style="stop-color:#F4A06A"/>
		<stop  offset="1" style="stop-color:#BC1818"/>
	</linearGradient>
	<rect x="2" y="11.2" class="st0" width="124.8" height="8.6"/>
	<line class="st1" x1="126.9" y1="25.5" x2="126.9" y2="11.2"/>
	<text transform="matrix(1 0 0 1 112.4 33.8699)" class="st2 st3 st4">43 [max]</text>
	<line class="st1" x1="32.4" y1="11.1" x2="32.4" y2="25.4"/>
	<text transform="matrix(1 0 0 1 28.84 33.8699)" class="st2 st3 st4">10</text>
	<line class="st1" x1="2" y1="11.1" x2="2" y2="25.4"/>
	<text transform="matrix(1 0 0 1 0 33.8699)" class="st2 st3 st4">0</text>
	<text transform="matrix(1 0 0 1 1.8 7.7299)" class="st2 st3 st4">Outdegree [Farbe der Knoten]</text>
	<text transform="matrix(1 0 0 1 39.73 5.7299)" class="st3 st4"> </text>
	<text transform="matrix(1 0 0 1 59.48 33.8699)" class="st2 st3 st4">20</text>
	<line class="st1" x1="63" y1="11.3" x2="63" y2="25.5"/>
</g>
</svg>
